<svg xmlns="http://www.w3.org/2000/svg" xmlns:xlink="http://www.w3.org/1999/xlink" width="221" zoomAndPan="magnify" viewBox="0 0 165.75 35.25" height="47" preserveAspectRatio="xMidYMid meet" version="1.0"><defs><g/><clipPath id="23d1c3190e"><path d="M 1.605469 0 L 161.515625 0 L 161.515625 34.515625 L 1.605469 34.515625 Z M 1.605469 0 " clip-rule="nonzero"/></clipPath><clipPath id="96db2639df"><path d="M 21.367188 25 L 45.601562 25 L 45.601562 27 L 21.367188 27 Z M 21.367188 25 " clip-rule="nonzero"/></clipPath><clipPath id="166347df2f"><path d="M 24 7.507812 L 43 7.507812 L 43 26 L 24 26 Z M 24 7.507812 " clip-rule="nonzero"/></clipPath></defs><g clip-path="url(#23d1c3190e)"><path fill="#ffffff" d="M -0.78125 -63.890625 L 161.515625 -63.890625 L 161.515625 98.40625 L -0.78125 98.40625 Z M -0.78125 -63.890625 " fill-opacity="1" fill-rule="nonzero"/></g><g fill="#103e5b" fill-opacity="1"><g transform="translate(55.827403, 28.064653)"><g><path d="M 12.265625 -9.609375 L 12.265625 -14.296875 L 21.40625 -14.296875 L 21.40625 -0.53125 C 20.175781 -0.289062 18.757812 -0.0976562 17.15625 0.046875 C 15.5625 0.203125 14.15625 0.28125 12.9375 0.28125 C 9.789062 0.28125 7.457031 -0.0390625 5.9375 -0.6875 C 4.414062 -1.34375 3.367188 -2.53125 2.796875 -4.25 C 2.234375 -5.96875 1.953125 -8.628906 1.953125 -12.234375 C 1.953125 -15.597656 2.242188 -18.148438 2.828125 -19.890625 C 3.410156 -21.640625 4.472656 -22.882812 6.015625 -23.625 C 7.554688 -24.375 9.851562 -24.75 12.90625 -24.75 C 14.664062 -24.75 16.410156 -24.640625 18.140625 -24.421875 C 19.867188 -24.210938 20.921875 -24.050781 21.296875 -23.9375 L 21.296875 -19.234375 C 18.640625 -19.566406 16.601562 -19.734375 15.1875 -19.734375 C 12.84375 -19.734375 11.234375 -19.609375 10.359375 -19.359375 C 9.492188 -19.109375 8.921875 -18.5 8.640625 -17.53125 C 8.359375 -16.5625 8.21875 -14.796875 8.21875 -12.234375 C 8.21875 -9.910156 8.320312 -8.242188 8.53125 -7.234375 C 8.75 -6.222656 9.191406 -5.53125 9.859375 -5.15625 C 10.535156 -4.78125 11.644531 -4.59375 13.1875 -4.59375 C 14.039062 -4.59375 14.859375 -4.625 15.640625 -4.6875 L 15.640625 -9.609375 Z M 12.265625 -9.609375 "/></g></g></g><g fill="#103e5b" fill-opacity="1"><g transform="translate(78.552775, 28.064653)"><g><path d="M 2.28125 0 L 2.28125 -5.265625 L 8.359375 -5.265625 L 8.359375 0 Z M 2.28125 0 "/></g></g></g><g fill="#103e5b" fill-opacity="1"><g transform="translate(88.119472, 28.064653)"><g><path d="M 8.171875 0 L 8.171875 -8.328125 L 0.03125 -24.46875 L 6.4375 -24.46875 L 11.234375 -14.375 L 11.484375 -14.375 L 16.25 -24.46875 L 22.515625 -24.46875 L 14.375 -8.328125 L 14.375 0 Z M 8.171875 0 "/></g></g></g><g fill="#103e5b" fill-opacity="1"><g transform="translate(109.635671, 28.064653)"><g><path d="M 2.28125 0 L 2.28125 -5.265625 L 8.359375 -5.265625 L 8.359375 0 Z M 2.28125 0 "/></g></g></g><g fill="#103e5b" fill-opacity="1"><g transform="translate(119.202371, 28.064653)"><g><path d="M 21.515625 0 L 17.859375 -14.6875 L 17.640625 -14.6875 L 13.96875 0 L 6.15625 0 L 0.53125 -24.46875 L 6.71875 -24.46875 L 10.390625 -7.328125 L 10.5625 -7.328125 L 14.65625 -24.46875 L 20.984375 -24.46875 L 25.140625 -7.328125 L 25.359375 -7.328125 L 28.765625 -24.46875 L 34.921875 -24.46875 L 29.296875 0 Z M 21.515625 0 "/></g></g></g><path fill="#73c0ff" d="M 44.273438 14.707031 C 41.839844 8.21875 44.515625 5.40625 44.515625 5.40625 C 44.515625 5.40625 42.054688 5.765625 37.773438 4.542969 C 33.496094 3.320312 31.941406 1.195312 31.941406 1.195312 C 31.941406 1.195312 30.386719 3.320312 26.109375 4.542969 C 21.828125 5.765625 19.367188 5.40625 19.367188 5.40625 C 19.367188 5.40625 22.042969 8.21875 19.613281 14.707031 C 17.980469 19.054688 18.046875 23.167969 19.367188 25.839844 C 21.5 30.152344 29.574219 32.65625 31.941406 33.308594 C 34.308594 32.65625 42.382812 30.152344 44.515625 25.839844 C 45.835938 23.167969 45.902344 19.054688 44.273438 14.707031 " fill-opacity="1" fill-rule="nonzero"/><path fill="#103e5b" d="M 43.105469 14.875 C 40.902344 8.820312 43.328125 6.195312 43.328125 6.195312 C 43.328125 6.195312 41.097656 6.527344 37.222656 5.386719 C 33.347656 4.246094 31.941406 2.265625 31.941406 2.265625 C 31.941406 2.265625 30.535156 4.246094 26.660156 5.386719 C 22.785156 6.527344 20.554688 6.195312 20.554688 6.195312 C 20.554688 6.195312 22.976562 8.820312 20.777344 14.875 C 19.300781 18.9375 19.359375 22.773438 20.554688 25.265625 C 22.484375 29.292969 29.796875 31.632812 31.941406 32.238281 C 34.082031 31.632812 41.398438 29.292969 43.328125 25.265625 C 44.523438 22.773438 44.582031 18.9375 43.105469 14.875 " fill-opacity="1" fill-rule="nonzero"/><g clip-path="url(#96db2639df)"><path fill="#ffffff" d="M 33.304688 26.742188 C 35.371094 26.742188 37.054688 26.796875 37.054688 26.863281 C 37.054688 26.933594 35.371094 26.988281 33.304688 26.988281 C 31.242188 26.988281 29.554688 26.933594 29.554688 26.863281 C 29.554688 26.796875 31.242188 26.742188 33.304688 26.742188 M 33.304688 26.003906 C 37.519531 26.003906 40.953125 26.0625 40.953125 26.136719 C 40.953125 26.214844 37.519531 26.273438 33.304688 26.273438 C 29.09375 26.273438 25.660156 26.214844 25.660156 26.136719 C 25.660156 26.0625 29.09375 26.003906 33.304688 26.003906 Z M 33.304688 25.175781 C 39.882812 25.175781 45.246094 25.261719 45.246094 25.367188 C 45.246094 25.476562 39.882812 25.5625 33.304688 25.5625 C 26.730469 25.5625 21.367188 25.476562 21.367188 25.367188 C 21.367188 25.261719 26.730469 25.175781 33.304688 25.175781 Z M 33.304688 25.175781 " fill-opacity="1" fill-rule="evenodd"/></g><g clip-path="url(#166347df2f)"><path fill="#ffffff" d="M 29.859375 24.046875 C 29.816406 24.085938 29.757812 24.042969 29.789062 23.996094 C 32.617188 20.128906 34.449219 12.574219 27.457031 7.527344 C 31.417969 9.28125 38.839844 17.308594 41.496094 22.152344 C 41.578125 22.300781 41.460938 22.304688 41.375 22.195312 C 40.480469 21.035156 38.773438 20.914062 37.894531 21.054688 C 38.558594 20.796875 39.59375 20.742188 40.484375 21.078125 C 38.171875 19.6875 31.820312 22.203125 29.859375 24.046875 M 26.152344 13.8125 L 26.25 14.789062 C 26.285156 15.125 26.433594 15.265625 26.761719 15.300781 L 27.742188 15.402344 L 26.765625 15.503906 C 26.429688 15.535156 26.285156 15.683594 26.25 16.015625 L 26.152344 16.992188 L 26.050781 16.015625 C 26.015625 15.679688 25.871094 15.535156 25.539062 15.503906 L 24.5625 15.402344 L 25.539062 15.300781 C 25.875 15.265625 26.015625 15.121094 26.050781 14.789062 Z M 28.144531 11.003906 L 28.222656 11.777344 C 28.25 12.042969 28.363281 12.152344 28.625 12.179688 L 29.398438 12.261719 L 28.628906 12.339844 C 28.363281 12.367188 28.25 12.480469 28.222656 12.742188 L 28.144531 13.515625 L 28.0625 12.746094 C 28.035156 12.480469 27.921875 12.367188 27.660156 12.339844 L 26.886719 12.261719 L 27.660156 12.179688 C 27.925781 12.152344 28.035156 12.039062 28.0625 11.777344 Z M 29.734375 15.109375 L 29.785156 15.585938 C 29.800781 15.75 29.871094 15.820312 30.035156 15.839844 L 30.511719 15.886719 L 30.035156 15.9375 C 29.871094 15.953125 29.800781 16.023438 29.785156 16.1875 L 29.734375 16.664062 L 29.683594 16.1875 C 29.667969 16.023438 29.597656 15.953125 29.433594 15.9375 L 28.957031 15.886719 L 29.433594 15.839844 C 29.597656 15.820312 29.667969 15.75 29.683594 15.589844 Z M 37.730469 25.335938 C 38.625 24.53125 39.800781 23.621094 40.863281 23.027344 C 41.105469 22.890625 41.28125 22.839844 41.492188 22.8125 C 41.8125 22.773438 41.566406 22.792969 41.886719 22.773438 C 41.949219 22.769531 42.148438 22.507812 41.992188 22.519531 C 40.859375 22.484375 39.621094 22.542969 38.621094 22.734375 C 36.710938 23.101562 35.152344 23.800781 33.160156 24.0625 C 31.046875 24.339844 28.199219 24.378906 26.453125 24.234375 C 25.882812 24.191406 25.503906 23.84375 25.300781 23.824219 C 25.070312 23.804688 24.847656 23.808594 24.867188 23.929688 C 25.003906 24.144531 26.222656 24.980469 25.941406 25.335938 Z M 37.730469 25.335938 " fill-opacity="1" fill-rule="evenodd"/></g></svg>