<svg width="221" height="47" viewBox="0 0 221 47" fill="none" xmlns="http://www.w3.org/2000/svg">
<path d="M55.624 36V12.64H60.872V36H55.624ZM60.232 36V31.392H70.024V36H60.232ZM86.119 36.608C84.007 36.608 82.1617 36.2453 80.583 35.52C79.0257 34.7733 77.735 33.8027 76.711 32.608C75.687 31.392 74.919 30.08 74.407 28.672C73.9163 27.264 73.671 25.9093 73.671 24.608V23.904C73.671 22.4533 73.927 21.024 74.439 19.616C74.9723 18.1867 75.7617 16.896 76.807 15.744C77.8523 14.592 79.1537 13.6747 80.711 12.992C82.2683 12.288 84.071 11.936 86.119 11.936C88.167 11.936 89.9697 12.288 91.527 12.992C93.0843 13.6747 94.3857 14.592 95.431 15.744C96.4763 16.896 97.2657 18.1867 97.799 19.616C98.3323 21.024 98.599 22.4533 98.599 23.904V24.608C98.599 25.9093 98.343 27.264 97.831 28.672C97.319 30.08 96.551 31.392 95.527 32.608C94.503 33.8027 93.2017 34.7733 91.623 35.52C90.0657 36.2453 88.231 36.608 86.119 36.608ZM86.119 31.712C87.2283 31.712 88.2203 31.52 89.095 31.136C89.991 30.752 90.7483 30.2187 91.367 29.536C92.007 28.8533 92.487 28.064 92.807 27.168C93.127 26.272 93.287 25.312 93.287 24.288C93.287 23.2 93.1163 22.208 92.775 21.312C92.455 20.3947 91.975 19.6053 91.335 18.944C90.7163 18.2613 89.9697 17.7387 89.095 17.376C88.2203 17.0133 87.2283 16.832 86.119 16.832C85.0097 16.832 84.0177 17.0133 83.143 17.376C82.2683 17.7387 81.511 18.2613 80.871 18.944C80.2523 19.6053 79.783 20.3947 79.463 21.312C79.143 22.208 78.983 23.2 78.983 24.288C78.983 25.312 79.143 26.272 79.463 27.168C79.783 28.064 80.2523 28.8533 80.871 29.536C81.511 30.2187 82.2683 30.752 83.143 31.136C84.0177 31.52 85.0097 31.712 86.119 31.712ZM104.495 36V12.448H109.743V36H104.495ZM118.671 36L111.823 25.952H117.583L124.751 36H118.671ZM108.335 28.512V24.384H114.095C114.863 24.384 115.525 24.2347 116.079 23.936C116.655 23.616 117.093 23.1787 117.391 22.624C117.711 22.048 117.871 21.3867 117.871 20.64C117.871 19.8933 117.711 19.2427 117.391 18.688C117.093 18.112 116.655 17.6747 116.079 17.376C115.525 17.056 114.863 16.896 114.095 16.896H108.335V12.448H113.679C115.621 12.448 117.306 12.7467 118.735 13.344C120.165 13.92 121.263 14.784 122.031 15.936C122.799 17.088 123.183 18.5387 123.183 20.288V20.8C123.183 22.528 122.789 23.968 121.999 25.12C121.231 26.2507 120.133 27.104 118.703 27.68C117.295 28.2347 115.621 28.512 113.679 28.512H108.335ZM129.79 36V12.64H134.91V36H129.79ZM134.27 36V31.648H144.478V36H134.27ZM134.27 26.304V21.952H143.742V26.304H134.27ZM134.27 16.992V12.64H144.254V16.992H134.27ZM150.71 36V12.64H159.318L168.118 31.744H169.206L168.566 32.32V12.64H173.494V36H164.822L156.022 16.896H154.934L155.574 16.32V36H150.71ZM185.301 36V16.576H190.549V36H185.301ZM178.741 17.216V12.64H197.141V17.216H178.741ZM206.966 27.136L200.15 12.64H205.526L210.422 23.488L209.494 23.2H212.182L211.19 23.488L215.606 12.64H220.694L214.422 27.136H206.966ZM208.118 36V26.4H213.27V36H208.118Z" fill="#23388A"/>
<rect width="47" height="47" rx="23.5" fill="#23388A"/>
<path d="M15.6665 9.35641V37.7522" stroke="white" stroke-width="6"/>
<path d="M25.4582 37.7523V24.9305C25.4582 21.6168 28.1445 18.9305 31.4582 18.9305H36.1203" stroke="white" stroke-width="6"/>
</svg>
