<svg xmlns="http://www.w3.org/2000/svg" xmlns:xlink="http://www.w3.org/1999/xlink" width="50" zoomAndPan="magnify" viewBox="0 0 37.5 37.499999" height="50" preserveAspectRatio="xMidYMid meet" version="1.0"><defs><clipPath id="15c67b3ea5"><path d="M 5.890625 26 L 31.054688 26 L 31.054688 28.933594 L 5.890625 28.933594 Z M 5.890625 26 " clip-rule="nonzero"/></clipPath><clipPath id="774f465563"><path d="M 9 8.207031 L 28 8.207031 L 28 28 L 9 28 Z M 9 8.207031 " clip-rule="nonzero"/></clipPath></defs><path fill="#73c0ff" d="M 31.746094 15.765625 C 29.132812 8.796875 32.007812 5.773438 32.007812 5.773438 C 32.007812 5.773438 29.367188 6.15625 24.765625 4.84375 C 20.167969 3.527344 18.5 1.25 18.5 1.25 C 18.5 1.25 16.832031 3.527344 12.230469 4.84375 C 7.632812 6.15625 4.988281 5.773438 4.988281 5.773438 C 4.988281 5.773438 7.863281 8.796875 5.25 15.761719 C 3.5 20.4375 3.570312 24.855469 4.988281 27.726562 C 7.277344 32.359375 15.957031 35.050781 18.5 35.75 C 21.039062 35.050781 29.71875 32.359375 32.011719 27.726562 C 33.429688 24.855469 33.5 20.4375 31.746094 15.761719 " fill-opacity="1" fill-rule="nonzero"/><path fill="#103e5b" d="M 30.496094 15.945312 C 28.128906 9.441406 30.734375 6.621094 30.734375 6.621094 C 30.734375 6.621094 28.339844 6.976562 24.175781 5.75 C 20.011719 4.523438 18.5 2.398438 18.5 2.398438 C 18.5 2.398438 16.988281 4.523438 12.824219 5.75 C 8.660156 6.976562 6.265625 6.621094 6.265625 6.621094 C 6.265625 6.621094 8.867188 9.441406 6.503906 15.945312 C 4.917969 20.308594 4.980469 24.433594 6.265625 27.109375 C 8.339844 31.4375 16.195312 33.949219 18.5 34.601562 C 20.800781 33.949219 28.660156 31.4375 30.734375 27.109375 C 32.015625 24.433594 32.082031 20.308594 30.496094 15.945312 " fill-opacity="1" fill-rule="nonzero"/><g clip-path="url(#15c67b3ea5)"><path fill="#ffffff" d="M 18.5 28.519531 C 20.683594 28.519531 22.460938 28.578125 22.460938 28.648438 C 22.460938 28.722656 20.683594 28.777344 18.5 28.777344 C 16.320312 28.777344 14.542969 28.722656 14.542969 28.648438 C 14.542969 28.578125 16.320312 28.519531 18.5 28.519531 M 18.5 27.738281 C 22.949219 27.738281 26.578125 27.804688 26.578125 27.882812 C 26.578125 27.960938 22.949219 28.027344 18.5 28.027344 C 14.050781 28.027344 10.421875 27.960938 10.421875 27.882812 C 10.421875 27.804688 14.050781 27.738281 18.5 27.738281 Z M 18.5 26.863281 C 25.445312 26.863281 31.113281 26.957031 31.113281 27.070312 C 31.113281 27.179688 25.445312 27.273438 18.5 27.273438 C 11.554688 27.273438 5.890625 27.179688 5.890625 27.070312 C 5.890625 26.957031 11.554688 26.863281 18.5 26.863281 Z M 18.5 26.863281 " fill-opacity="1" fill-rule="evenodd"/></g><g clip-path="url(#774f465563)"><path fill="#ffffff" d="M 14.863281 25.671875 C 14.816406 25.714844 14.753906 25.667969 14.789062 25.621094 C 17.773438 21.535156 19.710938 13.554688 12.324219 8.222656 C 16.507812 10.074219 24.347656 18.554688 27.152344 23.671875 C 27.238281 23.828125 27.117188 23.832031 27.023438 23.714844 C 26.078125 22.492188 24.277344 22.363281 23.347656 22.511719 C 24.050781 22.242188 25.144531 22.183594 26.082031 22.535156 C 23.644531 21.066406 16.933594 23.726562 14.863281 25.671875 M 10.945312 14.863281 L 11.050781 15.894531 C 11.085938 16.25 11.242188 16.398438 11.589844 16.433594 L 12.625 16.542969 L 11.59375 16.648438 C 11.238281 16.683594 11.085938 16.835938 11.050781 17.1875 L 10.945312 18.21875 L 10.835938 17.1875 C 10.800781 16.835938 10.648438 16.683594 10.296875 16.648438 L 9.265625 16.542969 L 10.296875 16.433594 C 10.652344 16.398438 10.800781 16.246094 10.835938 15.894531 Z M 13.046875 11.898438 L 13.132812 12.710938 C 13.160156 12.992188 13.28125 13.109375 13.558594 13.140625 L 14.375 13.222656 L 13.558594 13.308594 C 13.277344 13.335938 13.160156 13.457031 13.132812 13.734375 L 13.046875 14.550781 L 12.964844 13.734375 C 12.933594 13.453125 12.8125 13.335938 12.535156 13.308594 L 11.722656 13.222656 L 12.535156 13.140625 C 12.816406 13.109375 12.933594 12.988281 12.964844 12.710938 Z M 14.730469 16.234375 L 14.78125 16.738281 C 14.800781 16.910156 14.875 16.984375 15.046875 17.003906 L 15.550781 17.054688 L 15.046875 17.105469 C 14.871094 17.125 14.800781 17.199219 14.78125 17.371094 L 14.730469 17.875 L 14.675781 17.371094 C 14.660156 17.199219 14.582031 17.125 14.414062 17.105469 L 13.90625 17.054688 L 14.410156 17.003906 C 14.585938 16.984375 14.660156 16.910156 14.675781 16.738281 Z M 23.175781 27.035156 C 24.121094 26.183594 25.359375 25.222656 26.484375 24.597656 C 26.742188 24.453125 26.925781 24.398438 27.148438 24.371094 C 27.488281 24.328125 27.226562 24.351562 27.5625 24.328125 C 27.628906 24.320312 27.839844 24.046875 27.675781 24.058594 C 26.480469 24.023438 25.171875 24.085938 24.117188 24.289062 C 22.097656 24.675781 20.449219 25.414062 18.347656 25.691406 C 16.117188 25.984375 13.109375 26.023438 11.265625 25.871094 C 10.660156 25.824219 10.261719 25.460938 10.046875 25.4375 C 9.804688 25.414062 9.566406 25.421875 9.589844 25.550781 C 9.734375 25.773438 11.019531 26.660156 10.722656 27.035156 Z M 23.175781 27.035156 " fill-opacity="1" fill-rule="evenodd"/></g></svg>